<svg width="800" height="800" viewBox="0 0 800 800" fill="none" xmlns="http://www.w3.org/2000/svg">
<path d="M715.852 512.727C715.852 420.254 627.583 345.362 518.716 345.362C409.808 345.362 321.539 420.294 321.539 512.727C321.539 605.2 409.808 680.132 518.716 680.132C552.933 680.132 585.139 672.709 613.2 659.634L690.908 693.248L681.916 606.568C703.36 579.834 715.852 547.487 715.852 512.727ZM452.293 467.386C436.783 467.386 424.231 454.813 424.231 439.324C424.231 423.835 436.763 411.262 452.293 411.262C467.782 411.262 480.314 423.835 480.314 439.324C480.314 454.813 467.742 467.386 452.293 467.386ZM585.139 467.386C569.669 467.386 557.097 454.813 557.097 439.324C557.097 423.835 569.669 411.262 585.139 411.262C600.648 411.262 613.22 423.835 613.22 439.324C613.22 454.813 600.648 467.386 585.139 467.386Z" fill="white"/>
<path d="M518.736 323.215C549.211 323.215 578.218 328.646 604.651 338.403C604.832 334.882 605.254 331.463 605.254 327.922C605.254 205.738 488.562 106.727 344.692 106.727C200.803 106.727 84.1504 205.718 84.1504 327.922C84.1504 373.867 100.686 416.593 128.989 451.977L117.1 566.518L219.772 522.001C245.199 533.869 273.301 541.835 302.972 545.919C300.739 535.096 299.371 524.053 299.371 512.727C299.391 408.225 397.778 323.215 518.736 323.215ZM432.498 193.91C452.956 193.91 469.512 210.485 469.512 230.923C469.512 251.401 452.956 267.977 432.498 267.977C412 267.977 395.465 251.401 395.465 230.923C395.465 210.485 412.061 193.91 432.498 193.91ZM256.866 267.977C236.408 267.977 219.853 251.401 219.853 230.923C219.853 210.485 236.408 193.91 256.866 193.91C277.344 193.91 293.899 210.485 293.899 230.923C293.899 251.361 277.324 267.977 256.866 267.977Z" fill="white"/>
</svg>
