<svg width="800" height="800" viewBox="0 0 800 800" fill="none" xmlns="http://www.w3.org/2000/svg">
<path d="M799.989 542.759C799.989 425.653 688.207 330.812 550.339 330.812C412.421 330.812 300.639 425.704 300.639 542.759C300.639 659.865 412.421 754.758 550.339 754.758C593.671 754.758 634.456 745.357 669.993 728.799L768.401 771.367L757.014 661.597C784.169 627.742 799.989 586.779 799.989 542.759ZM466.223 485.34C446.582 485.34 430.686 469.418 430.686 449.803C430.686 430.187 446.556 414.266 466.223 414.266C485.838 414.266 501.709 430.187 501.709 449.803C501.709 469.418 485.787 485.34 466.223 485.34ZM634.456 485.34C614.866 485.34 598.945 469.418 598.945 449.803C598.945 430.187 614.866 414.266 634.456 414.266C654.097 414.266 670.018 430.187 670.018 449.803C670.018 469.418 654.097 485.34 634.456 485.34Z" fill="white"/>
<path d="M550.364 302.764C588.958 302.764 625.692 309.642 659.165 321.997C659.395 317.539 659.93 313.209 659.93 308.725C659.93 153.993 512.152 28.6079 329.959 28.6079C147.74 28.6079 0.0136719 153.968 0.0136719 308.725C0.0136719 366.909 20.9537 421.017 56.7962 465.826L41.7408 610.878L171.762 554.503C203.962 569.533 239.55 579.62 277.125 584.792C274.297 571.087 272.565 557.101 272.565 542.759C272.59 410.419 397.186 302.764 550.364 302.764ZM441.155 139.014C467.062 139.014 488.028 160.005 488.028 185.887C488.028 211.82 467.062 232.811 441.155 232.811C415.196 232.811 394.256 211.82 394.256 185.887C394.256 160.005 415.273 139.014 441.155 139.014ZM218.737 232.811C192.83 232.811 171.864 211.82 171.864 185.887C171.864 160.005 192.83 139.014 218.737 139.014C244.67 139.014 265.636 160.005 265.636 185.887C265.636 211.769 244.645 232.811 218.737 232.811Z" fill="white"/>
</svg>
